<mxfile host="app.diagrams.net" modified="2023-05-12T10:12:47.004Z" agent="Mozilla/5.0 (X11; Ubuntu; Linux x86_64; rv:109.0) Gecko/20100101 Firefox/112.0" version="21.2.9" etag="oeYuUAilPNDd8J-Z1Ken" type="github">
  <diagram name="Страница 1" id="8DNZ8iUt5KnkvrMqJiTr">
    <mxGraphModel>
      <root>
        <mxCell id="0" />
        <mxCell id="1" parent="0" />
      </root>
    </mxGraphModel>
  </diagram>
</mxfile>
